<svg width="256" height="256" viewBox="0 0 256 256" fill="none" xmlns="http://www.w3.org/2000/svg">
<path fill-rule="evenodd" clip-rule="evenodd" d="M149.333 234.667H106.667C66.4426 234.667 46.3253 234.667 33.8346 222.165C21.344 209.664 21.3333 189.557 21.3333 149.333V106.667C21.3333 66.4427 21.3333 46.3253 33.8346 33.8346C46.336 21.344 66.5493 21.3333 106.987 21.3333C113.451 21.3333 118.624 21.3333 122.987 21.5146C122.844 22.368 122.773 23.2355 122.773 24.1173L122.667 54.3466C122.667 66.048 122.667 76.3946 123.787 84.7253C125.003 93.76 127.787 102.795 135.168 110.176C142.528 117.536 151.573 120.331 160.608 121.547C168.939 122.667 179.285 122.667 190.987 122.667H234.208C234.667 128.363 234.667 135.36 234.667 144.672V149.333C234.667 189.557 234.667 209.675 222.165 222.165C209.664 234.656 189.557 234.667 149.333 234.667Z" fill="#171834"/>
<path d="M122.773 24.1067L122.667 54.3467C122.667 66.048 122.667 76.384 123.787 84.7253C125.003 93.76 127.787 102.795 135.168 110.165C142.528 117.536 151.573 120.331 160.608 121.547C168.939 122.667 179.285 122.667 190.987 122.667H234.208C234.35 124.316 234.45 126.094 234.507 128H234.667C234.667 125.141 234.667 123.712 234.56 122.027C233.75 111.888 230.22 102.156 224.341 93.856C223.339 92.4907 222.656 91.68 221.301 90.048C212.843 79.936 201.707 67.328 192 58.6667C183.36 50.944 171.509 42.5067 161.173 35.616C152.299 29.6853 147.861 26.72 141.771 24.5227C139.997 23.896 138.196 23.3479 136.373 22.88C132.277 21.8667 128.288 21.5147 122.667 21.3867L122.773 24.1067Z" fill="#474A9F"/>
<path d="M102.403 155.524C100.541 155.524 98.8388 155.044 97.2968 154.084C95.7548 153.123 94.5329 151.771 93.631 150.025C92.7291 148.25 92.2781 146.17 92.2781 143.784C92.2781 141.486 92.7291 139.435 93.631 137.631C94.562 135.827 95.7839 134.402 97.2968 133.354C98.8388 132.307 100.526 131.783 102.359 131.783C103.872 131.783 105.167 132.089 106.243 132.7C107.349 133.311 108.207 133.936 108.818 134.576V122.706H112.746V149.501C112.746 150.607 113.007 151.334 113.531 151.683C114.084 152.003 114.68 152.163 115.32 152.163L114.491 155.218C111.727 155.218 110.04 154.113 109.429 151.902C108.789 152.803 107.887 153.633 106.723 154.389C105.589 155.145 104.148 155.524 102.403 155.524ZM103.276 152.032C104.352 152.032 105.37 151.785 106.33 151.291C107.32 150.767 108.149 150.098 108.818 149.283V138.024C108.265 137.325 107.494 136.685 106.505 136.104C105.516 135.493 104.425 135.187 103.232 135.187C101.835 135.187 100.614 135.565 99.5661 136.322C98.5187 137.078 97.7041 138.096 97.1222 139.377C96.5695 140.628 96.2931 142.053 96.2931 143.653C96.2931 145.254 96.5985 146.694 97.2095 147.974C97.8205 149.225 98.6497 150.214 99.697 150.941C100.774 151.669 101.966 152.032 103.276 152.032ZM129.221 155.524C125.962 155.524 123.373 154.491 121.453 152.425C119.562 150.33 118.616 147.406 118.616 143.653C118.616 141.384 119.038 139.362 119.882 137.587C120.754 135.783 121.962 134.372 123.504 133.354C125.046 132.307 126.835 131.783 128.872 131.783C131.054 131.783 132.857 132.263 134.283 133.223C135.738 134.154 136.829 135.42 137.556 137.02C138.283 138.62 138.647 140.38 138.647 142.301C138.647 143.319 138.604 144.308 138.516 145.268H122.631C122.893 147.392 123.635 149.05 124.857 150.243C126.079 151.436 127.693 152.032 129.701 152.032C131.01 152.032 132.188 151.902 133.236 151.64C134.283 151.349 135.287 150.985 136.247 150.549L137.163 153.909C136.116 154.374 134.938 154.753 133.628 155.044C132.319 155.364 130.85 155.524 129.221 155.524ZM122.587 142.082H135.025C135.025 139.871 134.472 138.169 133.367 136.976C132.261 135.783 130.734 135.187 128.784 135.187C127.097 135.187 125.7 135.783 124.595 136.976C123.489 138.14 122.82 139.842 122.587 142.082ZM149.948 155L140.827 133.354L144.405 131.87L152.13 150.549L159.854 131.87L163.215 133.354L154.05 155H149.948Z" fill="white"/>
<path d="M98.7988 164.5C98.7988 165.281 98.1656 165.914 97.3845 165.914H80.4143C79.6332 165.914 79 165.281 79 164.5V161.671C79 160.89 79.6332 160.257 80.4143 160.257H97.3845C98.1656 160.257 98.7988 160.89 98.7988 161.671V164.5Z" fill="url(#paint0_linear_7_3)"/>
<path d="M124.257 164.5C124.257 165.281 123.624 165.914 122.843 165.914H105.871C105.09 165.914 104.457 165.281 104.457 164.5V161.671C104.457 160.89 105.09 160.257 105.871 160.257H122.843C123.624 160.257 124.257 160.89 124.257 161.671V164.5Z" fill="url(#paint1_linear_7_3)"/>
<path d="M178 164.5C178 165.281 177.367 165.914 176.586 165.914H132.743C131.962 165.914 131.329 165.281 131.329 164.5V161.671C131.329 160.89 131.962 160.257 132.743 160.257H176.586C177.367 160.257 178 160.89 178 161.671V164.5Z" fill="url(#paint2_linear_7_3)"/>
<path d="M109.675 191.895C108.365 191.895 107.129 191.662 105.965 191.197C104.831 190.702 103.885 190.135 103.129 189.495V191.371H99.4627V159.077H103.39V171.035C103.972 170.366 104.816 169.726 105.922 169.115C107.056 168.475 108.395 168.155 109.937 168.155C111.682 168.155 113.311 168.62 114.824 169.551C116.366 170.453 117.603 171.777 118.534 173.522C119.465 175.239 119.93 177.334 119.93 179.807C119.93 181.61 119.639 183.254 119.057 184.738C118.476 186.222 117.69 187.502 116.701 188.578C115.741 189.626 114.65 190.44 113.428 191.022C112.206 191.604 110.955 191.895 109.675 191.895ZM108.627 188.404C110.053 188.404 111.304 188.055 112.38 187.357C113.486 186.658 114.344 185.669 114.955 184.389C115.595 183.109 115.915 181.625 115.915 179.938C115.915 178.192 115.595 176.694 114.955 175.443C114.344 174.192 113.515 173.231 112.468 172.562C111.449 171.893 110.315 171.559 109.064 171.559C107.813 171.559 106.678 171.879 105.66 172.519C104.671 173.13 103.914 173.799 103.39 174.526V186.658C104.06 187.182 104.845 187.604 105.747 187.924C106.649 188.244 107.609 188.404 108.627 188.404Z" fill="white"/>
<path d="M125.908 191.371V168.678H129.836V191.371H125.908ZM127.872 164.794C127.116 164.794 126.461 164.518 125.908 163.965C125.385 163.412 125.123 162.772 125.123 162.045C125.123 161.201 125.37 160.532 125.865 160.037C126.359 159.543 127.028 159.295 127.872 159.295C128.629 159.295 129.269 159.572 129.792 160.125C130.345 160.648 130.621 161.288 130.621 162.045C130.621 162.859 130.374 163.529 129.88 164.052C129.385 164.547 128.716 164.794 127.872 164.794Z" fill="white"/>
<path d="M136.285 191.371V168.678H140.081V172.475C140.896 171.253 141.929 170.235 143.18 169.42C144.46 168.576 145.973 168.155 147.719 168.155C150.279 168.155 152.184 168.926 153.435 170.468C154.716 172.009 155.356 174.046 155.356 176.577V191.371H151.428V177.014C151.428 175.384 151.035 174.075 150.25 173.086C149.493 172.097 148.431 171.602 147.064 171.602C145.726 171.602 144.46 172.082 143.267 173.042C142.074 173.973 141.056 175.079 140.212 176.359V191.371H136.285Z" fill="white"/>
<defs>
<linearGradient id="paint0_linear_7_3" x1="79" y1="163.086" x2="178" y2="163.086" gradientUnits="userSpaceOnUse">
<stop stop-color="#00AFC3"/>
<stop offset="0.5" stop-color="#8081DE"/>
<stop offset="1" stop-color="#FF52F9"/>
</linearGradient>
<linearGradient id="paint1_linear_7_3" x1="79" y1="163.086" x2="178" y2="163.086" gradientUnits="userSpaceOnUse">
<stop stop-color="#00AFC3"/>
<stop offset="0.5" stop-color="#8081DE"/>
<stop offset="1" stop-color="#FF52F9"/>
</linearGradient>
<linearGradient id="paint2_linear_7_3" x1="79" y1="163.086" x2="178" y2="163.086" gradientUnits="userSpaceOnUse">
<stop stop-color="#00AFC3"/>
<stop offset="0.5" stop-color="#8081DE"/>
<stop offset="1" stop-color="#FF52F9"/>
</linearGradient>
</defs>
</svg>
